<svg width="68" height="67" viewBox="0 0 68 67" fill="none" xmlns="http://www.w3.org/2000/svg">
<path d="M54.827 42.2081C59.3598 37.8848 62.7968 32.5434 64.8533 26.6266C66.9098 20.7099 67.5265 14.3882 66.6524 8.18556L66.4988 7.11841C66.2582 5.46118 65.4892 3.92584 64.3062 2.7406C63.1232 1.55536 61.5893 0.783482 59.9325 0.539706L58.8555 0.386194C52.6524 -0.48861 46.3302 0.127804 40.4129 2.18433C34.4957 4.24085 29.1539 7.67825 24.8304 12.2115C22.4325 10.9665 19.796 10.2489 17.0979 10.1069C14.7141 9.91246 12.3164 10.2318 10.0666 11.0434C7.81689 11.8549 5.76748 13.1398 4.05684 14.8113C3.59266 15.2756 3.3319 15.9053 3.3319 16.5618C3.3319 17.2184 3.59266 17.848 4.05684 18.3124L14.456 28.7115L15.1171 29.3776L13.1214 31.9056C12.3447 32.8875 11.956 34.1207 12.029 35.3706C12.102 36.6205 12.6318 37.8 13.5176 38.6848L28.3735 53.5407C29.2579 54.4262 30.4368 54.956 31.6861 55.0295C32.9354 55.103 34.1682 54.7151 35.1503 53.9394L37.6808 51.9388L38.3444 52.6023L48.7435 63.0015C49.2078 63.4657 49.8375 63.7264 50.494 63.7264C51.1506 63.7264 51.7803 63.4657 52.2446 63.0015C53.9134 61.289 55.1965 59.2393 56.0079 56.99C56.8193 54.7408 57.1402 52.344 56.9489 49.9605C56.8044 47.2543 56.0808 44.6107 54.827 42.2081ZM58.1548 5.28865L59.2318 5.44217C59.8282 5.52967 60.3804 5.80728 60.8065 6.23374C61.2325 6.66019 61.5095 7.21273 61.5964 7.80921L61.7499 8.88627C62.599 14.8749 61.8561 20.9816 59.596 26.592C57.3358 32.2024 53.6381 37.1187 48.8747 40.8464L40.288 47.5464L19.4922 26.7604L26.1922 18.1737C29.9198 13.4092 34.8361 9.70998 40.4469 7.44813C46.0576 5.18629 52.1649 4.4415 58.1548 5.28865ZM16.8082 15.0416C18.4237 15.1314 20.0133 15.4878 21.5126 16.0964L15.9639 23.2322L9.49907 16.7748C11.6987 15.4578 14.2514 14.8525 16.8082 15.0416ZM31.8548 50.0323L24.4268 42.6043L16.9988 34.9708L18.6355 32.8984L34.0906 48.3535L31.8548 50.0323ZM50.2762 57.5395L43.8138 51.0747L50.9422 45.5161C51.5519 47.015 51.9084 48.6047 51.997 50.2204C52.193 52.7793 51.5919 55.3361 50.2762 57.5395ZM45.3465 31.2246C47.2321 31.2255 49.0756 30.6669 50.6436 29.6196C52.2117 28.5724 53.4338 27.0834 54.1554 25.3413C54.877 23.5992 55.0655 21.6822 54.6971 19.8329C54.3288 17.9836 53.4201 16.2851 52.0861 14.9524C50.271 13.218 47.857 12.2501 45.3465 12.2501C42.8359 12.2501 40.4219 13.218 38.6068 14.9524C37.274 16.2856 36.3664 17.984 35.9987 19.8329C35.6311 21.6818 35.8199 23.5982 36.5412 25.3398C37.2626 27.0814 38.4841 28.5701 40.0514 29.6176C41.6187 30.665 43.4614 31.2243 45.3465 31.2246ZM42.1054 18.4535C42.5283 18.0177 43.0337 17.6703 43.5922 17.4316C44.1506 17.1928 44.7509 17.0676 45.3582 17.063C45.9655 17.0584 46.5677 17.1747 47.1296 17.405C47.6916 17.6353 48.2021 17.975 48.6316 18.4045C49.061 18.8339 49.4008 19.3445 49.6311 19.9064C49.8614 20.4684 49.9776 21.0705 49.9731 21.6778C49.9685 22.2851 49.8432 22.8855 49.6045 23.4439C49.3658 24.0024 49.0184 24.5077 48.5826 24.9307C47.7102 25.7637 46.5503 26.2286 45.344 26.2286C44.1377 26.2286 42.9778 25.7637 42.1054 24.9307C41.2478 24.071 40.7662 22.9064 40.7662 21.6921C40.7662 20.4778 41.2478 19.3131 42.1054 18.4535ZM10.8312 46.7541L4.52233 55.9796C4.15163 56.522 3.58065 56.895 2.93499 57.0164C2.28933 57.1378 1.62187 56.9978 1.07946 56.6271C0.53705 56.2564 0.164111 55.6854 0.0426866 55.0397C-0.0787379 54.3941 0.0612992 53.7266 0.431991 53.1842L6.74329 43.9587C6.92684 43.6903 7.16146 43.4606 7.43375 43.2829C7.70604 43.1051 8.01068 42.9828 8.33026 42.9228C8.64985 42.8628 8.97812 42.8663 9.29634 42.9331C9.61457 43 9.9165 43.1289 10.1849 43.3124C10.4533 43.496 10.683 43.7306 10.8607 44.0029C11.0384 44.2752 11.1608 44.5798 11.2208 44.8994C11.2808 45.219 11.2773 45.5473 11.2104 45.8655C11.1436 46.1837 11.0147 46.4856 10.8312 46.7541ZM23.7261 56.8536C23.9097 57.122 24.0386 57.424 24.1054 57.7422C24.1723 58.0604 24.1758 58.3887 24.1158 58.7083C24.0558 59.0279 23.9334 59.3325 23.7557 59.6048C23.5779 59.8771 23.3483 60.1117 23.0799 60.2952L13.8543 66.6041C13.3123 66.9541 12.655 67.0786 12.0225 66.9513C11.39 66.8239 10.8322 66.4547 10.4678 65.9222C10.1035 65.3897 9.96139 64.736 10.0718 64.1003C10.1822 63.4646 10.5364 62.8971 11.0589 62.5187L20.2845 56.2074C20.5529 56.0238 20.8548 55.8949 21.1731 55.8281C21.4913 55.7612 21.8196 55.7577 22.1391 55.8177C22.4587 55.8777 22.7634 56.0001 23.0357 56.1778C23.308 56.3556 23.5426 56.5852 23.7261 56.8536ZM11.3462 58.1634C10.8565 58.1633 10.3779 58.018 9.97085 57.746C9.56377 57.4739 9.2465 57.0872 9.05914 56.6349C8.87178 56.1825 8.82275 55.6848 8.91824 55.2045C9.01373 54.7243 9.24946 54.2832 9.59563 53.9369L15.3226 48.2198C15.5522 47.9895 15.8248 47.8066 16.1251 47.6816C16.4253 47.5566 16.7472 47.492 17.0725 47.4914C17.3977 47.4908 17.7198 47.5543 18.0205 47.6782C18.3212 47.8022 18.5945 47.9841 18.8249 48.2137C19.0553 48.4432 19.2382 48.7159 19.3631 49.0161C19.4881 49.3164 19.5528 49.6383 19.5533 49.9635C19.5539 50.2887 19.4904 50.6109 19.3665 50.9116C19.2426 51.2122 19.0606 51.4856 18.8311 51.7159L13.1016 57.438C12.6374 57.9023 12.0077 58.1633 11.3511 58.1634H11.3462Z" fill="white"/>
</svg>
