<svg width="67" height="67" viewBox="0 0 67 67" fill="none" xmlns="http://www.w3.org/2000/svg">
<path d="M19.0631 29.6898H47.0541C47.5412 29.6898 48.0198 29.5615 48.4417 29.3179C48.8636 29.0743 49.2139 28.724 49.4575 28.3021C49.701 27.8802 49.8293 27.4017 49.8293 26.9145C49.8292 26.4274 49.701 25.9488 49.4574 25.5269L35.4619 1.28803C35.1985 0.891896 34.8413 0.567021 34.422 0.342305C34.0027 0.117589 33.5343 0 33.0586 0C32.5829 0 32.1145 0.117589 31.6952 0.342305C31.2759 0.567021 30.9187 0.891896 30.6552 1.28803L16.6597 25.5269C16.4162 25.9488 16.2879 26.4274 16.2879 26.9145C16.2879 27.4017 16.4161 27.8802 16.6597 28.3021C16.9033 28.724 17.2536 29.0743 17.6755 29.3179C18.0974 29.5615 18.5759 29.6898 19.0631 29.6898ZM33.0586 8.22611L42.2474 24.1393H23.8698L33.0586 8.22611ZM14.2925 38.3818C11.4631 38.3851 8.69822 39.2271 6.34729 40.8014C3.99636 42.3757 2.16492 44.6116 1.08445 47.2266C0.00397993 49.8415 -0.277014 52.7181 0.276985 55.4927C0.830984 58.2673 2.1951 60.8153 4.19693 62.8148C6.19876 64.8143 8.74842 66.1755 11.5237 66.7263C14.2989 67.277 17.1751 66.9927 19.7888 65.9092C22.4025 64.8257 24.6363 62.9916 26.2078 60.6389C27.7794 58.2861 28.6182 55.5203 28.6182 52.6909C28.6138 48.8944 27.1025 45.2548 24.4164 42.5718C21.7303 39.8888 18.089 38.3818 14.2925 38.3818ZM14.2925 61.4495C12.5609 61.4462 10.8691 60.9298 9.43097 59.9653C7.99281 59.0009 6.87278 57.6319 6.21241 56.0312C5.55205 54.4304 5.38097 52.6699 5.7208 50.972C6.06063 49.2741 6.89612 47.715 8.1217 46.4917C9.34728 45.2685 10.9079 44.436 12.6065 44.0994C14.305 43.7628 16.0653 43.9372 17.6647 44.6006C19.2642 45.264 20.6311 46.3866 21.5928 47.8266C22.5545 49.2666 23.0677 50.9593 23.0677 52.6909C23.0648 55.0158 22.1388 57.2444 20.4933 58.8868C18.8477 60.5292 16.6174 61.451 14.2925 61.4495ZM63.3586 39.7056H42.9356C42.1996 39.7056 41.4937 39.998 40.9733 40.5184C40.4528 41.0389 40.1604 41.7448 40.1604 42.4808V62.9038C40.1604 63.6398 40.4528 64.3457 40.9733 64.8661C41.4937 65.3866 42.1996 65.679 42.9356 65.679H63.3586C64.0946 65.679 64.8005 65.3866 65.321 64.8661C65.8414 64.3457 66.1338 63.6398 66.1338 62.9038V42.4808C66.1338 41.7448 65.8414 41.0389 65.321 40.5184C64.8005 39.998 64.0946 39.7056 63.3586 39.7056ZM60.5833 60.1285H45.7109V45.256H60.5833V60.1285Z" fill="white"/>
</svg>
