<svg width="48" height="48" viewBox="0 0 48 48" fill="none" xmlns="http://www.w3.org/2000/svg">
<circle cx="24" cy="24" r="24" fill="white"/>
<path fill-rule="evenodd" clip-rule="evenodd" d="M18.1956 10.3915C19.663 10.3249 20.1308 10.3101 23.8685 10.3101C27.6062 10.3101 28.074 10.3261 29.5402 10.3915C31.0062 10.457 32.0069 10.6878 32.8825 11.0224C33.7995 11.3644 34.6313 11.899 35.3193 12.5904C36.0199 13.2682 36.5603 14.0879 36.9055 14.9941C37.2458 15.8583 37.4784 16.846 37.5459 18.2905C37.6135 19.7411 37.6285 20.2029 37.6285 23.8907C37.6285 27.5797 37.6122 28.0414 37.5459 29.4896C37.4796 30.9341 37.2458 31.9217 36.9055 32.7859C36.5602 33.6922 36.0189 34.5134 35.3193 35.1922C34.6313 35.8836 33.7995 36.4169 32.8825 36.7577C32.0069 37.0935 31.0062 37.3231 29.5426 37.3898C28.074 37.4564 27.6062 37.4712 23.8685 37.4712C20.1308 37.4712 19.663 37.4552 18.1956 37.3898C16.7321 37.3243 15.7314 37.0935 14.8557 36.7577C13.9374 36.4169 13.1055 35.8827 12.4177 35.1922C11.7177 34.5139 11.1759 33.6932 10.8303 32.7872C10.4913 31.923 10.2586 30.9353 10.1911 29.4908C10.1235 28.0402 10.1085 27.5784 10.1085 23.8907C10.1085 20.2017 10.1248 19.7399 10.1911 18.293C10.2574 16.846 10.4913 15.8583 10.8303 14.9941C11.1765 14.088 11.7186 13.2673 12.4189 12.5891C13.1057 11.8984 13.9369 11.3637 14.8545 11.0224C15.7301 10.6878 16.7308 10.4582 18.1944 10.3915H18.1956ZM29.4288 12.836C27.9778 12.7706 27.5424 12.757 23.8685 12.757C20.1946 12.757 19.7593 12.7706 18.3082 12.836C16.966 12.8965 16.238 13.1175 15.7526 13.304C15.1109 13.5509 14.6518 13.8435 14.1702 14.3188C13.7137 14.7571 13.3624 15.2908 13.142 15.8806C12.9531 16.3596 12.7292 17.0781 12.6679 18.4028C12.6016 19.835 12.5878 20.2647 12.5878 23.8907C12.5878 27.5167 12.6016 27.9463 12.6679 29.3784C12.7292 30.7031 12.9531 31.4217 13.142 31.9007C13.3621 32.4896 13.7136 33.0242 14.1702 33.4625C14.6143 33.9131 15.1559 34.2601 15.7526 34.4774C16.238 34.6637 16.966 34.8848 18.3082 34.9452C19.7593 35.0107 20.1934 35.0243 23.8685 35.0243C27.5437 35.0243 27.9778 35.0107 29.4288 34.9452C30.771 34.8848 31.499 34.6637 31.9844 34.4774C32.6261 34.2304 33.0852 33.9378 33.5668 33.4625C34.0234 33.0242 34.3749 32.4896 34.5951 31.9007C34.7839 31.4217 35.0078 30.7031 35.0692 29.3784C35.1355 27.9463 35.1492 27.5167 35.1492 23.8907C35.1492 20.2647 35.1355 19.835 35.0692 18.4028C35.0078 17.0781 34.7839 16.3596 34.5951 15.8806C34.3449 15.2472 34.0484 14.7941 33.5668 14.3188C33.1226 13.8683 32.582 13.5215 31.9844 13.304C31.499 13.1175 30.771 12.8965 29.4288 12.836ZM22.111 28.0772C23.0925 28.4804 24.1855 28.5349 25.2031 28.2312C26.2208 27.9274 27.1001 27.2844 27.6908 26.412C28.2815 25.5395 28.547 24.4918 28.4419 23.4475C28.3368 22.4034 27.8677 21.4276 27.1146 20.6869C26.6346 20.2134 26.0541 19.8508 25.415 19.6253C24.776 19.3998 24.0942 19.3169 23.4188 19.3827C22.7434 19.4484 22.0912 19.6611 21.509 20.0055C20.9269 20.3499 20.4295 20.8174 20.0524 21.3744C19.6753 21.9313 19.428 22.5638 19.3284 23.2264C19.2287 23.8889 19.2792 24.5651 19.476 25.2062C19.6729 25.8472 20.0113 26.4372 20.4669 26.9336C20.9226 27.43 21.4841 27.8206 22.111 28.0772ZM18.8674 18.9548C19.5241 18.3066 20.3038 17.7924 21.1619 17.4416C22.02 17.0907 22.9397 16.9102 23.8685 16.9102C24.7973 16.9102 25.717 17.0907 26.5751 17.4415C27.4332 17.7924 28.2129 18.3066 28.8696 18.9548C29.5264 19.603 30.0474 20.3725 30.4028 21.2194C30.7582 22.0662 30.9412 22.974 30.9412 23.8907C30.9412 24.8073 30.7582 25.715 30.4028 26.5619C30.0474 27.4089 29.5264 28.1784 28.8696 28.8266C27.5433 30.1357 25.7443 30.8711 23.8685 30.8711C21.9928 30.8711 20.1938 30.1357 18.8674 28.8266C17.541 27.5175 16.7958 25.742 16.7958 23.8907C16.7958 22.0393 17.541 20.2638 18.8674 18.9548ZM32.5098 17.9498C32.6725 17.7982 32.8028 17.616 32.8929 17.4139C32.9831 17.2118 33.0312 16.9939 33.0344 16.7731C33.0377 16.5523 32.996 16.3331 32.9119 16.1285C32.8279 15.9239 32.7029 15.738 32.5447 15.5818C32.3865 15.4257 32.1982 15.3025 31.9909 15.2195C31.7835 15.1364 31.5615 15.0953 31.3378 15.0986C31.1141 15.1018 30.8933 15.1493 30.6885 15.2382C30.4837 15.3272 30.2991 15.4557 30.1455 15.6164C29.847 15.9288 29.6835 16.3437 29.6899 16.7731C29.6962 17.2025 29.8719 17.6126 30.1795 17.9162C30.4872 18.2199 30.9027 18.3933 31.3378 18.3995C31.7728 18.4058 32.1932 18.2445 32.5098 17.9498Z" fill="#1B1B87"/>
</svg>
