<svg width="54" height="54" viewBox="0 0 54 54" fill="none" xmlns="http://www.w3.org/2000/svg">
<path d="M16.6986 22.6323H22.7067V36.5538H16.6986V22.6323ZM19.7027 20.8422C18.6216 20.8422 17.7443 20.5587 17.0708 19.9915C16.415 19.4067 16.0872 18.6712 16.0872 17.785C16.0872 16.8989 16.415 16.1722 17.0708 15.6051C17.7443 15.0202 18.6216 14.7278 19.7027 14.7278C20.8015 14.7278 21.6788 15.0025 22.3345 15.5519C22.9903 16.1013 23.3182 16.8102 23.3182 17.6787C23.3182 18.6003 22.9903 19.3624 22.3345 19.965C21.6788 20.5498 20.8015 20.8422 19.7027 20.8422Z" fill="#1B1B87"/>
<path d="M30.6867 16.828H36.6948V36.5538H30.6867V16.828Z" fill="#1B1B87"/>
<circle cx="27" cy="27" r="24.5" stroke="#1B1B87" stroke-width="5"/>
</svg>
