<svg width="74" height="67" viewBox="0 0 74 67" fill="none" xmlns="http://www.w3.org/2000/svg">
<path d="M35.1933 40.9838C35.1933 41.6719 34.9156 42.3318 34.4214 42.8184C33.9271 43.305 33.2567 43.5783 32.5577 43.5783H2.63561C1.9366 43.5783 1.26623 43.305 0.771953 42.8184C0.27768 42.3318 0 41.6719 0 40.9838C0 40.2957 0.27768 39.6357 0.771953 39.1491C1.26623 38.6626 1.9366 38.3892 2.63561 38.3892H32.5577C33.2567 38.3892 33.9271 38.6626 34.4214 39.1491C34.9156 39.6357 35.1933 40.2957 35.1933 40.9838ZM32.5577 48.7675H10.5424C9.84344 48.7675 9.17306 49.0408 8.67879 49.5274C8.18451 50.014 7.90683 50.6739 7.90683 51.362C7.90683 52.0502 8.18451 52.7101 8.67879 53.1967C9.17306 53.6833 9.84344 53.9566 10.5424 53.9566H32.5577C33.2567 53.9566 33.9271 53.6833 34.4214 53.1967C34.9156 52.7101 35.1933 52.0502 35.1933 51.362C35.1933 50.6739 34.9156 50.014 34.4214 49.5274C33.9271 49.0408 33.2567 48.7675 32.5577 48.7675ZM32.5577 59.1457H18.4493C17.7503 59.1457 17.0799 59.4191 16.5856 59.9057C16.0913 60.3923 15.8137 61.0522 15.8137 61.7403C15.8137 62.4284 16.0913 63.0884 16.5856 63.5749C17.0799 64.0615 17.7503 64.3349 18.4493 64.3349H32.5577C33.2567 64.3349 33.9271 64.0615 34.4214 63.5749C34.9156 63.0884 35.1933 62.4284 35.1933 61.7403C35.1933 61.0522 34.9156 60.3923 34.4214 59.9057C33.9271 59.4191 33.2567 59.1457 32.5577 59.1457ZM46.5264 40.2936L57.1269 29.8712C57.607 29.3819 57.8726 28.7265 57.8666 28.0462C57.8606 27.3659 57.5834 26.7152 57.0948 26.2341C56.6061 25.7531 55.9451 25.4802 55.254 25.4743C54.563 25.4684 53.8972 25.7299 53.4001 26.2025L42.805 36.6171C42.5532 36.8565 42.3525 37.1428 42.2143 37.4593C42.0762 37.7759 42.0035 38.1163 42.0004 38.4608C41.9974 38.8053 42.0641 39.147 42.1966 39.4658C42.3291 39.7847 42.5248 40.0744 42.7723 40.318C43.0198 40.5616 43.314 40.7543 43.6379 40.8847C43.9618 41.0152 44.3089 41.0808 44.6589 41.0778C45.0088 41.0748 45.3547 41.0033 45.6762 40.8673C45.9978 40.7313 46.2886 40.5336 46.5317 40.2858L46.5264 40.2936ZM47.2987 10.0306V5.18913H49.792C50.491 5.18913 51.1614 4.91578 51.6556 4.4292C52.1499 3.94263 52.4276 3.28269 52.4276 2.59457C52.4276 1.90644 52.1499 1.24651 51.6556 0.759932C51.1614 0.273356 50.491 0 49.792 0H39.5394C38.8404 0 38.1701 0.273356 37.6758 0.759932C37.1815 1.24651 36.9038 1.90644 36.9038 2.59457C36.9038 3.28269 37.1815 3.94263 37.6758 4.4292C38.1701 4.91578 38.8404 5.18913 39.5394 5.18913H42.0327V10.0254C35.9256 10.5567 30.1483 12.9865 25.5364 16.9633L22.0732 13.554C21.579 13.0668 20.9085 12.7929 20.2091 12.7924C19.5097 12.7919 18.8388 13.0649 18.3439 13.5514C17.849 14.0379 17.5706 14.698 17.5702 15.3865C17.5697 16.075 17.847 16.7355 18.3412 17.2227L21.9151 20.7384C19.7375 23.4488 18.0774 26.5256 17.0155 29.8194C16.8287 30.4689 16.9065 31.1646 17.2323 31.7587C17.5581 32.3528 18.1063 32.7984 18.7604 33.001C19.4146 33.2037 20.1233 33.1473 20.7359 32.8439C21.3486 32.5405 21.8169 32.014 22.0416 31.3761C23.552 26.6421 26.5604 22.5074 30.6273 19.576C34.6943 16.6446 39.6067 15.07 44.6473 15.0822H44.6683H44.6894C50.984 15.0843 57.0199 17.5478 61.4694 21.9309C65.9188 26.314 68.4173 32.2575 68.4152 38.4541C68.4131 44.6506 65.9106 50.5925 61.4582 54.9727C57.0058 59.3528 50.9682 61.8124 44.6736 61.8104C44.215 61.8104 43.7538 61.787 43.2214 61.7611C42.5288 61.7371 41.8546 61.9825 41.3445 62.4443C40.8345 62.9062 40.5297 63.5471 40.4962 64.2285C40.4704 64.9198 40.7228 65.5932 41.1986 66.1024C41.6743 66.6115 42.3349 66.9153 43.0369 66.9476C43.5825 66.9735 44.1307 66.9995 44.6736 66.9995C52.1639 67.0431 59.3806 64.2311 64.8115 59.1529C70.2424 54.0746 73.466 47.1242 73.8067 39.7581C74.1474 32.392 71.5789 25.1819 66.6393 19.6387C61.6997 14.0956 54.7725 10.6496 47.3092 10.0228L47.2987 10.0306Z" fill="white"/>
</svg>
